<svg width="360" height="258" viewBox="0 0 360 258" fill="none" xmlns="http://www.w3.org/2000/svg">
<g clip-path="url(#clip0_1535_4995)">
<path d="M23.8604 257.335H336.121C336.28 257.335 336.431 257.272 336.543 257.16C336.655 257.048 336.718 256.896 336.718 256.738C336.718 256.58 336.655 256.428 336.543 256.316C336.431 256.204 336.28 256.141 336.121 256.141H23.8604C23.7021 256.141 23.5504 256.204 23.4384 256.316C23.3265 256.428 23.2637 256.58 23.2637 256.738C23.2637 256.896 23.3265 257.048 23.4384 257.16C23.5504 257.272 23.7021 257.335 23.8604 257.335Z" fill="#CCCCCC"/>
<path d="M83.8545 112.729C65.5923 94.7454 57.8792 75.984 62.1354 59.9013C67.5975 39.2626 91.863 24.9927 128.71 20.7505L128.846 21.9344C92.512 26.1172 68.6167 40.0669 63.2869 60.2061C59.1447 75.8577 66.7458 94.2093 84.6902 111.88L83.8545 112.729Z" fill="#F0F0F0"/>
<path d="M260.054 176.565C237.262 176.565 212.494 173.177 187.892 166.662C157.469 158.605 129.574 146.445 107.224 131.494L107.885 130.504C130.129 145.382 157.9 157.487 188.197 165.51C215.576 172.761 243.161 176.121 267.958 175.234L268.001 176.425C265.382 176.519 262.733 176.566 260.054 176.565Z" fill="#F0F0F0"/>
<path d="M312.343 169.073L311.962 167.945C332.346 161.05 345.096 149.944 348.833 135.826C353.582 117.879 343.263 97.0517 319.777 77.1818C296.17 57.2109 262.129 40.6401 223.923 30.5225L224.228 29.3706C262.601 39.5327 296.808 56.1893 320.546 76.2722C344.403 96.4557 354.858 117.714 349.984 136.131C346.141 150.654 333.124 162.045 312.343 169.073Z" fill="#F0F0F0"/>
<path d="M125.165 177.064C80.379 157.194 45.8683 131.417 27.9902 104.478L28.9824 103.819C46.7369 130.571 81.0664 156.196 125.647 175.975L125.165 177.064Z" fill="#F0F0F0"/>
<path d="M282.627 211.485C278.008 211.485 273.309 211.382 268.532 211.176L268.583 209.985C304.234 211.529 335.69 207.262 359.555 197.641L360.001 198.746C339.182 207.138 312.647 211.485 282.627 211.485Z" fill="#F0F0F0"/>
<path d="M256.642 21.8191C249.24 19.4083 241.626 17.1636 234.012 15.1472C190.196 3.54405 147.126 -0.575671 109.454 3.23573L109.334 2.05011C147.146 -1.77378 190.365 2.3558 234.316 13.9953C241.952 16.0175 249.587 18.2686 257.01 20.6864L256.642 21.8191Z" fill="#F0F0F0"/>
<path d="M55.8652 114.517C37.603 96.533 29.8899 77.7716 34.1462 61.6889C39.6083 41.0502 63.8737 26.7803 100.721 22.5381L100.857 23.722C64.5228 27.9048 40.6275 41.8545 35.2977 61.9937C31.1554 77.6453 38.7566 95.9969 56.7009 113.668L55.8652 114.517Z" fill="#F0F0F0"/>
<path d="M232.064 178.353C209.271 178.353 184.504 174.964 159.902 168.449C129.479 160.393 101.584 148.232 79.2334 133.281L79.8953 132.291C102.138 147.169 129.909 159.274 160.207 167.297C187.586 174.548 215.17 177.908 239.968 177.021L240.011 178.212C237.392 178.306 234.743 178.353 232.064 178.353Z" fill="#F0F0F0"/>
<path d="M284.353 170.86L283.971 169.732C304.356 162.837 317.106 151.731 320.842 137.613C325.592 119.666 315.273 98.8388 291.786 78.9688C268.18 58.998 234.139 42.4272 195.933 32.3096L196.237 31.1577C234.611 41.3199 268.817 57.9764 292.555 78.0593C316.413 98.2428 326.868 119.501 321.994 137.918C318.15 152.441 305.134 163.832 284.353 170.86Z" fill="#F0F0F0"/>
<path d="M97.1743 178.851C52.3887 158.982 17.8781 133.204 0 106.265L0.992172 105.606C18.7467 132.358 53.0762 157.983 97.6571 177.762L97.1743 178.851Z" fill="#F0F0F0"/>
<path d="M254.637 213.272C250.018 213.272 245.319 213.169 240.542 212.963L240.593 211.773C276.244 213.317 307.699 209.049 331.565 199.428L332.01 200.534C311.192 208.925 284.657 213.272 254.637 213.272Z" fill="#F0F0F0"/>
<path d="M228.652 23.6062C221.249 21.1954 213.635 18.9507 206.021 16.9343C162.206 5.33118 119.135 1.21146 81.4636 5.02283L81.3438 3.83722C119.156 0.0133271 162.374 4.14291 206.326 15.7824C213.962 17.8046 221.597 20.0557 229.02 22.4735L228.652 23.6062Z" fill="#F0F0F0"/>
<path d="M20.3011 82.6045C28.8602 73.005 42.5134 67.1544 54.8863 70.6567C43.4718 78.737 35.2825 90.5957 31.7672 104.135C30.4304 109.361 29.4875 115.313 25.1425 118.508C22.4389 120.497 18.8566 120.972 15.5318 120.519C12.2068 120.066 9.06293 118.773 5.96149 117.491L5.12695 117.563C7.52631 104.926 11.742 92.2041 20.3011 82.6045Z" fill="#F2F2F2"/>
<path d="M54.8485 70.9239C44.5039 73.4294 35.2115 79.1316 28.2912 87.2208C26.7705 88.9357 25.5296 90.8797 24.614 92.9812C23.7883 95.0572 23.5334 97.3165 23.8758 99.5243C24.1537 101.589 24.6769 103.669 24.4482 105.766C24.3151 106.837 23.9572 107.869 23.3978 108.792C22.8384 109.716 22.0902 110.51 21.2022 111.124C19.0295 112.711 16.4163 113.423 13.8365 114.03C10.9723 114.703 7.98654 115.358 5.6517 117.262C5.36881 117.493 5.02747 117.04 5.30994 116.81C9.37214 113.497 15.0177 113.922 19.5122 111.516C21.6094 110.393 23.381 108.631 23.8118 106.214C24.1884 104.1 23.6506 101.954 23.3512 99.8659C22.9856 97.717 23.1517 95.5112 23.8348 93.4412C24.6404 91.2999 25.8044 89.3113 27.277 87.5606C30.5294 83.5664 34.3894 80.1085 38.7156 77.3137C43.6354 74.0966 49.0691 71.7451 54.7815 70.3609C55.1351 70.2753 55.1998 70.839 54.8485 70.9239H54.8485Z" fill="white"/>
<path d="M30.3655 84.4847C29.1663 83.139 28.4845 81.4108 28.4416 79.6086C28.3987 77.8064 28.9977 76.0476 30.1314 74.6464C30.3618 74.3637 30.8118 74.7085 30.5812 74.9916C29.523 76.2945 28.9652 77.9328 29.0086 79.6109C29.0519 81.2891 29.6935 82.8964 30.8176 84.1428C31.0615 84.414 30.608 84.7543 30.3655 84.4847Z" fill="white"/>
<path d="M23.5971 98.4957C27.2729 98.7399 30.9056 97.5893 33.771 95.2732C34.0547 95.0435 34.3961 95.496 34.1127 95.7255C31.1265 98.1301 27.3436 99.3198 23.5191 99.0572C23.1545 99.032 23.2345 98.4706 23.5971 98.4957Z" fill="white"/>
<path d="M43.7626 74.8375C44.1181 75.4549 44.6213 75.9743 45.2271 76.3491C45.8329 76.7238 46.5222 76.9422 47.2332 76.9846C47.5979 77.0053 47.5175 77.5667 47.1552 77.5462C46.3699 77.4957 45.6089 77.2535 44.9387 76.841C44.2685 76.4284 43.7095 75.8579 43.3105 75.1794C43.2676 75.1186 43.2494 75.0437 43.2596 74.97C43.2699 74.8962 43.3078 74.8291 43.3657 74.7823C43.4258 74.7374 43.5012 74.718 43.5755 74.7283C43.6498 74.7386 43.7171 74.7779 43.7626 74.8375L43.7626 74.8375Z" fill="white"/>
<path d="M72.4496 110.506C72.2215 110.5 71.9935 110.494 71.7625 110.491C68.6959 110.421 65.6286 110.6 62.591 111.026C62.3556 111.056 62.1175 111.089 61.8834 111.125C54.576 112.231 47.5373 114.684 41.1252 118.36C38.575 119.825 36.1399 121.482 33.8411 123.317C30.6664 125.851 27.4258 128.851 23.7091 130.15C23.3229 130.289 22.9283 130.405 22.5278 130.496L5.27958 118.576C5.25397 118.529 5.22547 118.486 5.19967 118.439L4.48926 117.994C4.60121 117.892 4.71954 117.787 4.8315 117.684C4.8962 117.624 4.96475 117.567 5.02941 117.507C5.07376 117.468 5.11832 117.429 5.1561 117.391C5.17082 117.378 5.18573 117.365 5.19773 117.356C5.23553 117.318 5.27462 117.287 5.30967 117.253C5.96948 116.668 6.63454 116.087 7.30486 115.509C7.30758 115.505 7.30759 115.505 7.31414 115.504C12.3798 111.053 17.9553 107.218 23.924 104.081C24.1034 103.99 24.2853 103.895 24.4725 103.809C27.1671 102.457 29.9677 101.327 32.8463 100.431C34.4241 99.9455 36.0255 99.5402 37.6442 99.2167C41.8285 98.3888 46.1169 98.2244 50.3523 98.7295C58.7952 99.7377 66.8219 103.436 72.0547 110.001C72.1885 110.169 72.3186 110.335 72.4496 110.506Z" fill="#F2F2F2"/>
<path d="M72.2599 110.699C62.4923 106.469 51.6408 105.426 41.2467 107.717C39.0003 108.17 36.8394 108.975 34.8436 110.102C32.9348 111.262 31.3715 112.912 30.316 114.881C29.295 116.697 28.4608 118.673 27.0163 120.21C26.2652 120.985 25.3587 121.593 24.3563 121.993C23.3538 122.394 22.2782 122.577 21.1997 122.533C18.5097 122.491 15.9949 121.486 13.5699 120.417C10.8773 119.23 8.09941 117.954 5.08912 118.068C4.72437 118.082 4.72426 117.515 5.08843 117.501C10.3258 117.303 14.5775 121.042 19.6143 121.828C21.9646 122.195 24.4396 121.855 26.2386 120.184C27.8117 118.723 28.6736 116.686 29.6915 114.838C30.6931 112.902 32.1532 111.241 33.9445 110C35.8765 108.775 38.0028 107.888 40.2323 107.377C45.2332 106.147 50.3965 105.711 55.5328 106.085C61.3973 106.479 67.1511 107.874 72.5453 110.209C72.8791 110.354 72.5915 110.843 72.2599 110.699H72.2599Z" fill="white"/>
<path d="M44.5499 106.782C44.4024 104.985 44.8982 103.195 45.9486 101.73C46.9991 100.265 48.5359 99.2217 50.2845 98.7857C50.6386 98.6987 50.7904 99.2451 50.4358 99.3322C48.8067 99.7352 47.3753 100.707 46.3999 102.073C45.4245 103.439 44.9694 105.109 45.1167 106.781C45.1482 107.145 44.5813 107.143 44.5499 106.782Z" fill="white"/>
<path d="M30.7127 113.892C33.5006 116.301 37.0937 117.57 40.7755 117.446C41.1403 117.434 41.1405 118.001 40.7762 118.013C36.9445 118.135 33.208 116.806 30.3124 114.293C30.0365 114.054 30.4383 113.654 30.7127 113.892Z" fill="white"/>
<path d="M61.0524 107.147C60.9646 107.854 61.0538 108.572 61.3119 109.236C61.57 109.9 61.989 110.49 62.5311 110.952C62.8099 111.188 62.4078 111.588 62.1309 111.353C61.5342 110.84 61.0724 110.188 60.7855 109.455C60.4987 108.722 60.3958 107.93 60.4856 107.148C60.4879 107.074 60.5184 107.003 60.571 106.95C60.6236 106.897 60.6942 106.867 60.7686 106.864C60.8437 106.865 60.9156 106.894 60.9687 106.947C61.0218 107 61.0519 107.072 61.0523 107.147H61.0524Z" fill="white"/>
<path d="M355.677 161.297C350.841 149.378 339.948 139.277 327.118 138.416C335.154 149.864 338.882 163.786 337.644 177.719C337.147 183.091 336.035 189.014 339.054 193.484C340.932 196.266 344.146 197.918 347.43 198.609C350.714 199.3 354.109 199.139 357.461 198.975L358.223 199.323C360.209 186.615 360.513 173.215 355.677 161.297Z" fill="#F2F2F2"/>
<path d="M327.064 138.681C335.965 144.518 342.8 153.013 346.6 162.958C347.456 165.085 347.972 167.333 348.128 169.62C348.208 171.853 347.689 174.066 346.625 176.031C345.669 177.882 344.478 179.665 343.989 181.717C343.754 182.771 343.745 183.862 343.961 184.92C344.178 185.978 344.616 186.978 345.246 187.854C346.759 190.08 348.981 191.628 351.207 193.067C353.678 194.665 356.27 196.285 357.829 198.864C358.018 199.176 358.492 198.865 358.303 198.553C355.59 194.067 350.13 192.569 346.706 188.792C345.108 187.029 344.031 184.774 344.438 182.353C344.793 180.235 346.021 178.395 347.004 176.529C348.071 174.628 348.655 172.494 348.707 170.315C348.668 168.028 348.24 165.763 347.441 163.619C345.72 158.764 343.247 154.21 340.111 150.123C336.558 145.439 332.231 141.397 327.316 138.173C327.012 137.973 326.761 138.483 327.064 138.681V138.681Z" fill="white"/>
<path d="M345.566 159.684C347.147 158.819 348.37 157.421 349.016 155.738C349.662 154.055 349.689 152.197 349.092 150.496C348.97 150.153 348.43 150.326 348.552 150.67C349.111 152.253 349.086 153.984 348.481 155.55C347.877 157.116 346.732 158.414 345.255 159.21C344.934 159.383 345.247 159.856 345.566 159.684Z" fill="white"/>
<path d="M347.234 175.156C343.69 174.15 340.655 171.845 338.735 168.7C338.545 168.388 338.071 168.7 338.261 169.011C340.265 172.28 343.429 174.672 347.119 175.711C347.471 175.809 347.584 175.254 347.234 175.156Z" fill="white"/>
<path d="M336.19 146.093C335.647 146.555 334.999 146.875 334.302 147.025C333.606 147.174 332.883 147.148 332.199 146.949C331.849 146.845 331.736 147.401 332.084 147.504C332.841 147.72 333.639 147.748 334.409 147.585C335.179 147.422 335.897 147.072 336.501 146.567C336.561 146.524 336.604 146.46 336.619 146.387C336.634 146.314 336.621 146.238 336.582 146.175C336.54 146.112 336.476 146.069 336.403 146.053C336.329 146.038 336.253 146.052 336.19 146.093H336.19Z" fill="white"/>
<path d="M297.187 170.043C297.403 170.114 297.62 170.184 297.839 170.26C300.751 171.224 303.579 172.424 306.297 173.847C306.509 173.954 306.722 174.065 306.93 174.178C313.441 177.676 319.246 182.353 324.05 187.971C325.96 190.208 327.696 192.588 329.245 195.089C331.383 198.543 333.427 202.458 336.492 204.93C336.808 205.192 337.141 205.434 337.488 205.654L357.738 200.226C357.778 200.19 357.819 200.16 357.859 200.124L358.677 199.944C358.607 199.81 358.53 199.672 358.459 199.537C358.419 199.459 358.373 199.382 358.332 199.304C358.304 199.252 358.275 199.2 358.252 199.152C358.243 199.135 358.233 199.117 358.225 199.105C358.202 199.056 358.176 199.014 358.154 198.97C357.729 198.197 357.298 197.426 356.861 196.657C356.86 196.652 356.86 196.652 356.854 196.649C353.578 190.753 349.615 185.268 345.048 180.306C344.91 180.16 344.77 180.009 344.623 179.866C342.539 177.686 340.281 175.68 337.871 173.869C336.548 172.881 335.176 171.961 333.76 171.112C330.098 168.925 326.114 167.329 321.955 166.381C313.665 164.492 304.862 165.276 297.728 169.7C297.546 169.813 297.368 169.925 297.187 170.043Z" fill="#F2F2F2"/>
<path d="M297.301 170.288C307.921 169.588 318.492 172.254 327.512 177.906C329.475 179.088 331.24 180.573 332.741 182.305C334.149 184.039 335.067 186.119 335.4 188.329C335.751 190.383 335.873 192.524 336.717 194.457C337.164 195.439 337.813 196.317 338.623 197.031C339.433 197.745 340.384 198.28 341.415 198.6C343.962 199.466 346.668 199.364 349.312 199.172C352.246 198.96 355.291 198.692 358.088 199.812C358.427 199.947 358.618 199.414 358.279 199.278C353.413 197.33 348.152 199.423 343.145 198.469C340.808 198.024 338.591 196.872 337.458 194.694C336.467 192.789 336.34 190.581 336.002 188.498C335.709 186.338 334.892 184.283 333.622 182.511C332.214 180.708 330.509 179.158 328.581 177.927C324.285 175.087 319.568 172.941 314.605 171.566C308.949 169.966 303.062 169.345 297.197 169.731C296.834 169.755 296.94 170.312 297.301 170.288V170.288Z" fill="white"/>
<path d="M324.715 175.915C325.458 174.273 325.592 172.42 325.095 170.687C324.598 168.954 323.501 167.455 322.001 166.456C321.696 166.255 321.37 166.719 321.675 166.92C323.073 167.847 324.095 169.244 324.555 170.859C325.014 172.473 324.882 174.199 324.181 175.724C324.03 176.056 324.564 176.245 324.715 175.915L324.715 175.915Z" fill="white"/>
<path d="M335.358 187.264C331.923 188.595 328.113 188.583 324.686 187.229C324.347 187.094 324.156 187.628 324.495 187.762C328.063 189.165 332.029 189.17 335.6 187.777C335.941 187.644 335.697 187.132 335.358 187.264V187.264Z" fill="white"/>
<path d="M309.05 170.71C308.895 171.406 308.57 172.052 308.103 172.591C307.637 173.129 307.044 173.544 306.379 173.796C306.037 173.925 306.281 174.437 306.621 174.309C307.355 174.026 308.009 173.568 308.525 172.974C309.042 172.38 309.405 171.668 309.583 170.902C309.606 170.831 309.601 170.754 309.569 170.686C309.537 170.619 309.481 170.567 309.412 170.539C309.341 170.514 309.263 170.518 309.196 170.55C309.128 170.582 309.075 170.64 309.05 170.71V170.71Z" fill="white"/>
<path d="M101.075 69.6887C103.706 69.6887 105.839 67.555 105.839 64.923C105.839 62.2909 103.706 60.1572 101.075 60.1572C98.4436 60.1572 96.3105 62.2909 96.3105 64.923C96.3105 67.555 98.4436 69.6887 101.075 69.6887Z" fill="#FD6584"/>
<path d="M283.436 116.708C283.858 114.11 282.094 111.662 279.497 111.24C276.899 110.819 274.452 112.583 274.031 115.181C273.609 117.779 275.373 120.227 277.97 120.649C280.568 121.07 283.015 119.306 283.436 116.708Z" fill="#E6E6E6"/>
<path d="M100.881 16.0574C103.513 16.0574 105.646 13.9237 105.646 11.2916C105.646 8.65958 103.513 6.52588 100.881 6.52588C98.2502 6.52588 96.1172 8.65958 96.1172 11.2916C96.1172 13.9237 98.2502 16.0574 100.881 16.0574Z" fill="#E6E6E6"/>
<path d="M243.037 67.3719H241.677V30.107C241.677 24.3869 239.406 18.901 235.362 14.8562C231.319 10.8114 225.835 8.53908 220.116 8.53906H141.191C138.36 8.53905 135.556 9.09692 132.94 10.1808C130.324 11.2647 127.947 12.8534 125.945 14.8561C123.943 16.8589 122.355 19.2365 121.271 21.8532C120.188 24.47 119.63 27.2746 119.63 30.1069V234.545C119.63 240.265 121.901 245.751 125.945 249.796C129.988 253.841 135.473 256.113 141.191 256.113H220.116C225.835 256.113 231.319 253.841 235.362 249.796C239.406 245.751 241.677 240.266 241.677 234.545V93.8977H243.037V67.3719Z" fill="#3F3D56"/>
<path d="M237.086 30.2569V234.396C237.087 236.511 236.671 238.605 235.862 240.558C235.053 242.512 233.868 244.288 232.373 245.783C230.878 247.279 229.104 248.465 227.151 249.275C225.198 250.084 223.104 250.501 220.99 250.501H141.679C137.409 250.501 133.314 248.805 130.295 245.785C127.276 242.765 125.579 238.669 125.579 234.398V30.2569C125.579 28.142 125.995 26.0478 126.804 24.0939C127.613 22.1399 128.799 20.3645 130.294 18.8689C131.789 17.3734 133.563 16.1871 135.517 15.3776C137.47 14.5682 139.563 14.1515 141.678 14.1514H151.304C150.83 15.3132 150.649 16.5738 150.777 17.8221C150.905 19.0704 151.338 20.2681 152.037 21.3096C152.737 22.3512 153.682 23.2046 154.789 23.7948C155.896 24.3849 157.131 24.6937 158.385 24.6938H203.603C204.857 24.6928 206.092 24.3836 207.198 23.7932C208.305 23.2028 209.249 22.3495 209.949 21.3081C210.648 20.2668 211.081 19.0695 211.209 17.8215C211.337 16.5736 211.157 15.3132 210.684 14.1514H220.986C223.1 14.1513 225.194 14.5677 227.147 15.377C229.101 16.1862 230.875 17.3724 232.37 18.8678C233.866 20.3631 235.051 22.1384 235.861 24.0923C236.67 26.0462 237.086 28.1403 237.086 30.2552L237.086 30.2569Z" fill="#F2F2F2"/>
<path d="M156.191 33.6382H131.588V34.7398H156.191V33.6382Z" fill="white"/>
<path d="M193.634 33.6382H169.031V34.7398H193.634V33.6382Z" fill="white"/>
<path d="M219.902 165.541H139.702C139.432 165.541 139.164 165.488 138.915 165.384C138.665 165.281 138.438 165.129 138.247 164.938C138.056 164.747 137.905 164.52 137.801 164.27C137.698 164.021 137.645 163.753 137.645 163.483C137.645 163.212 137.698 162.945 137.801 162.695C137.905 162.445 138.056 162.218 138.247 162.027C138.438 161.836 138.665 161.684 138.915 161.581C139.164 161.478 139.432 161.424 139.702 161.424H219.902C220.172 161.424 220.44 161.478 220.689 161.581C220.939 161.684 221.166 161.836 221.357 162.027C221.548 162.218 221.7 162.445 221.803 162.695C221.906 162.945 221.96 163.212 221.96 163.483C221.96 163.753 221.906 164.021 221.803 164.27C221.7 164.52 221.548 164.747 221.357 164.938C221.166 165.129 220.939 165.281 220.689 165.384C220.44 165.488 220.172 165.541 219.902 165.541Z" fill="#CCCCCC"/>
<path d="M219.902 179.862H139.702C139.157 179.862 138.633 179.645 138.247 179.259C137.861 178.873 137.645 178.349 137.645 177.804C137.645 177.258 137.861 176.734 138.247 176.348C138.633 175.962 139.157 175.745 139.702 175.745H219.902C220.448 175.745 220.971 175.962 221.357 176.348C221.743 176.734 221.96 177.258 221.96 177.804C221.96 178.349 221.743 178.873 221.357 179.259C220.971 179.645 220.448 179.862 219.902 179.862Z" fill="#CCCCCC"/>
<path d="M219.902 194.183H139.702C139.157 194.183 138.633 193.966 138.247 193.58C137.861 193.194 137.645 192.67 137.645 192.124C137.645 191.578 137.861 191.055 138.247 190.669C138.633 190.283 139.157 190.066 139.702 190.066H219.902C220.448 190.066 220.971 190.283 221.357 190.669C221.743 191.055 221.96 191.578 221.96 192.124C221.96 192.67 221.743 193.194 221.357 193.58C220.971 193.966 220.448 194.183 219.902 194.183Z" fill="#CCCCCC"/>
<path d="M231.077 33.6382H206.474V34.7398H231.077V33.6382Z" fill="white"/>
<path d="M156.191 231.376H131.588V232.478H156.191V231.376Z" fill="white"/>
<path d="M193.634 231.376H169.031V232.478H193.634V231.376Z" fill="white"/>
<path d="M231.077 231.376H206.474V232.478H231.077V231.376Z" fill="white"/>
<path d="M181.332 137.344C201.929 137.344 218.626 120.641 218.626 100.038C218.626 79.4351 201.929 62.7329 181.332 62.7329C160.736 62.7329 144.039 79.4351 144.039 100.038C144.039 120.641 160.736 137.344 181.332 137.344Z" fill="#D1D3D4"/>
<path d="M181.332 135.725C200.123 135.725 215.355 120.488 215.355 101.691C215.355 82.8951 200.123 67.6577 181.332 67.6577C162.542 67.6577 147.31 82.8951 147.31 101.691C147.31 120.488 162.542 135.725 181.332 135.725Z" fill="#1F1F7A"/>
<path d="M178.362 115.031C178.289 115.031 178.215 115.029 178.14 115.025C177.488 114.994 176.85 114.821 176.27 114.52C175.69 114.218 175.183 113.795 174.782 113.279L169.42 106.383C168.682 105.433 168.352 104.229 168.501 103.036C168.65 101.842 169.266 100.757 170.214 100.017L170.407 99.8675C171.357 99.1299 172.56 98.7994 173.754 98.9483C174.947 99.0971 176.033 99.7133 176.773 100.662C177.013 100.972 177.318 101.226 177.666 101.407C178.014 101.588 178.397 101.691 178.789 101.71C179.181 101.733 179.574 101.669 179.938 101.523C180.303 101.376 180.631 101.151 180.898 100.864L191.786 89.3669C192.614 88.4949 193.754 87.9868 194.956 87.9543C196.157 87.9218 197.323 88.3674 198.197 89.1934L198.374 89.3607C199.246 90.1888 199.755 91.3292 199.787 92.5318C199.82 93.7343 199.374 94.9006 198.548 95.7749L181.653 113.614C181.23 114.062 180.72 114.418 180.154 114.662C179.588 114.905 178.978 115.031 178.362 115.031Z" fill="white"/>
<path d="M121.747 47.8291H117.342V71.5137H121.747V47.8291Z" fill="#3F3D56"/>
<path d="M121.747 74.2676H117.342V88.0377H121.747V74.2676Z" fill="#3F3D56"/>
<path d="M121.747 90.7915H117.342V104.562H121.747V90.7915Z" fill="#3F3D56"/>
<path d="M159.74 19.738C160.956 19.738 161.942 18.7516 161.942 17.5348C161.942 16.318 160.956 15.3315 159.74 15.3315C158.523 15.3315 157.537 16.318 157.537 17.5348C157.537 18.7516 158.523 19.738 159.74 19.738Z" fill="white"/>
<path opacity="0.16" d="M181.332 131.01C172.725 131.009 164.438 127.744 158.141 121.873C151.845 116.002 148.008 107.961 147.403 99.3721C147.348 100.164 147.31 100.961 147.31 101.768C147.31 110.794 150.894 119.451 157.275 125.833C163.655 132.216 172.309 135.801 181.332 135.801C190.356 135.801 199.01 132.216 205.39 125.833C211.771 119.451 215.355 110.794 215.355 101.768C215.355 100.961 215.317 100.164 215.262 99.3721C214.657 107.961 210.82 116.002 204.523 121.873C198.227 127.744 189.94 131.009 181.332 131.01Z" fill="#231F20"/>
<path d="M229.299 129.154L256.279 130.255L259.583 112.078L236.457 104.918L229.299 129.154Z" fill="#FFB8B8"/>
<path d="M239.497 89.7852L239.758 81.198L226.682 77.9186L203.139 71.048C202.828 70.1026 202.236 69.274 201.444 68.6719C200.651 68.0698 199.695 67.7226 198.7 67.6762C197.706 67.6299 196.721 67.8865 195.876 68.4121C195.031 68.9378 194.365 69.7077 193.967 70.6201C193.569 71.5325 193.457 72.5443 193.646 73.5217C193.835 74.499 194.317 75.396 195.027 76.0938C195.736 76.7916 196.641 77.2573 197.621 77.4295C198.602 77.6017 199.611 77.4721 200.516 77.058L223.404 86.4693L239.497 89.7852Z" fill="#FFB8B8"/>
<path d="M231.07 89.7256L238.426 79.2305L238.61 79.2549C238.725 79.2701 250.261 80.814 257.824 83.0668C258.674 83.292 259.464 83.7001 260.14 84.2624C260.817 84.8247 261.362 85.5278 261.738 86.3226C262.279 87.4333 262.483 88.6778 262.327 89.9031C262.17 91.1284 261.659 92.2813 260.857 93.2203C260.04 94.2352 258.948 94.9935 257.712 95.4043C256.476 95.8152 255.148 95.8613 253.886 95.5371L231.07 89.7256Z" fill="#1F1F7A"/>
<path d="M235.73 248.839L228.247 248.839L224.688 219.968L235.731 219.969L235.73 248.839Z" fill="#FFB8B8"/>
<path d="M293.992 245.599L286.593 246.717L278.759 218.703L288.458 217.052L293.992 245.599Z" fill="#FFB8B8"/>
<path d="M257.381 124.747L231.502 120.341L230.581 122.239C225.628 132.464 222.704 143.552 221.97 154.89C221.345 164.462 220.977 174.571 220.965 185.168C220.946 201.587 221.784 216.823 223.108 230.685L237.312 230.596C236.901 215.878 237.46 201.149 238.984 186.504C240.071 176.061 241.582 166.306 243.33 157.304C246.573 170.519 251.149 183.369 256.988 195.658C261.952 206.158 272.162 218.295 277.125 228.795C282.211 228.185 287.297 227.574 292.383 226.964C288.375 216.36 281.225 200.877 277.216 190.274C271.486 175.113 268.897 164.833 263.166 149.673C263.493 146.823 263.557 143.949 263.357 141.087C263.09 136.318 262.098 130.594 259.199 126.778L257.381 124.747Z" fill="#2F2E41"/>
<path d="M261.379 116.845C262.672 119.261 259.602 124.267 257.381 124.747L231.789 116.472L244.675 79.1196L251.158 80.2983L261.527 82.0459L265.205 85.39C266.131 86.2331 266.793 87.327 267.11 88.539C267.426 89.7509 267.384 91.0288 266.989 92.2173L261.379 116.845Z" fill="#1F1F7A"/>
<path d="M243.762 102.409L236.522 97.7876L227.01 107.344L209.055 124.053C208.083 123.837 207.069 123.921 206.146 124.293C205.223 124.666 204.435 125.31 203.886 126.141C203.338 126.971 203.054 127.949 203.072 128.944C203.091 129.939 203.411 130.906 203.99 131.715C204.57 132.524 205.381 133.139 206.318 133.477C207.254 133.815 208.27 133.86 209.233 133.608C210.196 133.355 211.059 132.816 211.709 132.062C212.358 131.308 212.764 130.375 212.872 129.385L232.673 114.539L243.762 102.409Z" fill="#FFB8B8"/>
<path d="M239.395 109.619L234.15 97.9242L234.265 97.7789C234.337 97.6877 241.57 88.5662 247.377 83.222C248.006 82.6071 248.761 82.1368 249.59 81.8439C250.419 81.5509 251.302 81.4424 252.178 81.5258C253.408 81.6306 254.581 82.0924 255.553 82.8544C256.525 83.6163 257.253 84.6455 257.649 85.8156C258.102 87.037 258.194 88.3632 257.914 89.6356C257.634 90.9079 256.993 92.0727 256.069 92.9906L239.395 109.619Z" fill="#1F1F7A"/>
<path d="M255.708 76.6243C261.994 76.6243 267.09 71.5268 267.09 65.2387C267.09 58.9505 261.994 53.853 255.708 53.853C249.422 53.853 244.326 58.9505 244.326 65.2387C244.326 71.5268 249.422 76.6243 255.708 76.6243Z" fill="#FFB8B8"/>
<path d="M264.9 81.7367L264.857 81.7257L248.317 77.5874C247.743 77.444 247.212 77.1682 246.764 76.7822C246.317 76.3962 245.966 75.9107 245.74 75.3647C245.514 74.8186 245.42 74.2272 245.463 73.6378C245.507 73.0485 245.688 72.4776 245.992 71.9709L246.539 71.0616C247.072 70.1737 247.375 69.1663 247.419 68.1312C247.464 67.0962 247.248 66.0665 246.793 65.1362C246.009 63.6168 244.661 62.4652 243.039 61.9287L242.984 61.9024L242.637 61.6861C242.295 61.5249 241.991 61.2941 241.744 61.0086C241.497 60.723 241.312 60.3889 241.202 60.0278C241.087 59.6536 241.052 59.2595 241.099 58.8709C241.147 58.4824 241.275 58.108 241.476 57.7721C242.936 55.3289 245.121 53.4018 247.727 52.259C251.02 50.841 254.729 50.7296 258.1 51.9473C258.325 51.7408 258.597 51.5934 258.893 51.5183C259.189 51.4431 259.498 51.4426 259.794 51.5167C268.36 53.5919 269.065 59.3433 267.373 68.5757L269.376 76.6568C269.517 77.2274 269.533 77.822 269.422 78.3992C269.31 78.9765 269.075 79.5225 268.731 79.9995C268.388 80.4764 267.944 80.8728 267.432 81.161C266.92 81.4493 266.351 81.6225 265.765 81.6686L264.9 81.7367ZM258.009 52.0382L258.008 52.0393L258.009 52.0382ZM258.215 51.9876L258.217 51.9882L258.215 51.9876Z" fill="#2F2E41"/>
<path d="M237.553 256.323H233.282L232.52 252.29L230.568 256.323H219.241C218.699 256.323 218.17 256.15 217.733 255.828C217.295 255.506 216.972 255.053 216.811 254.534C216.649 254.016 216.657 253.459 216.834 252.946C217.012 252.432 217.348 251.989 217.795 251.681L226.84 245.432V241.354L236.353 241.923L237.553 256.323Z" fill="#2F2E41"/>
<path d="M295.183 256.323H290.912L290.15 252.29L288.198 256.323H276.871C276.328 256.323 275.8 256.15 275.362 255.828C274.925 255.506 274.602 255.053 274.441 254.534C274.279 254.016 274.287 253.459 274.464 252.946C274.641 252.432 274.978 251.989 275.425 251.681L284.469 245.432V241.354L293.983 241.923L295.183 256.323Z" fill="#2F2E41"/>
</g>
<defs>
<clipPath id="clip0_1535_4995">
<rect width="360" height="256.67" fill="white" transform="translate(0 0.665039)"/>
</clipPath>
</defs>
</svg>
