<svg width="360" height="284" viewBox="0 0 360 284" fill="none" xmlns="http://www.w3.org/2000/svg">
<g clip-path="url(#clip0_1535_5070)">
<path d="M184.444 67.536H182.89V24.9019C182.89 18.3576 180.29 12.0813 175.663 7.45379C171.035 2.82627 164.759 0.226563 158.215 0.226563H67.8866C64.6462 0.22651 61.4375 0.864704 58.4438 2.10471C55.45 3.34471 52.7298 5.16223 50.4384 7.45351C48.1471 9.74479 46.3295 12.4649 45.0894 15.4587C43.8493 18.4524 43.211 21.6611 43.2109 24.9015V258.795C43.2109 262.036 43.8492 265.245 45.0892 268.238C46.3293 271.232 48.1469 273.952 50.4382 276.243C52.7295 278.535 55.4497 280.352 58.4434 281.592C61.4372 282.832 64.6458 283.471 67.8862 283.471H158.213C164.758 283.471 171.034 280.871 175.662 276.243C180.289 271.616 182.889 265.34 182.889 258.795V97.8836H184.443L184.444 67.536Z" fill="#3F3D56"/>
<path d="M177.858 23.2492V260.447C177.857 265.409 175.886 270.168 172.378 273.677C168.869 277.186 164.111 279.158 159.15 279.159H66.9684C62.0047 279.16 57.2439 277.189 53.7333 273.68C50.2226 270.171 48.2495 265.411 48.248 260.447V23.2492C48.2495 18.2857 50.2225 13.5259 53.733 10.0169C57.2435 6.5079 62.0041 4.53696 66.9676 4.5376H78.1497C77.6007 5.88783 77.3917 7.35226 77.5412 8.80218C77.6906 10.2521 78.194 11.6431 79.0069 12.8529C79.8199 14.0628 80.9176 15.0544 82.2035 15.7406C83.4895 16.4269 84.9243 16.7867 86.3819 16.7886H138.936C140.394 16.7867 141.828 16.4269 143.114 15.7406C144.4 15.0544 145.498 14.0628 146.311 12.8529C147.124 11.6431 147.627 10.2521 147.777 8.80218C147.926 7.35226 147.717 5.88783 147.168 4.5376H159.146C164.108 4.53844 168.866 6.50962 172.375 10.0178C175.884 13.5259 177.856 18.2839 177.858 23.2456V23.2492Z" fill="white"/>
<path d="M156.458 228.273H71.3259C68.2641 228.269 65.3287 227.051 63.1637 224.886C60.9986 222.721 59.7808 219.786 59.7773 216.724V96.9625C59.7773 67.8846 83.4338 44.228 112.512 44.228H156.458C159.52 44.2315 162.455 45.4493 164.62 47.6143C166.785 49.7793 168.003 52.7146 168.006 55.7764V216.724C168.003 219.786 166.785 222.721 164.62 224.886C162.455 227.051 159.52 228.269 156.458 228.273Z" fill="#E6E6E6"/>
<path d="M66.2276 257.101C69.6125 257.101 72.3565 254.357 72.3565 250.972C72.3565 247.587 69.6125 244.843 66.2276 244.843C62.8426 244.843 60.0986 247.587 60.0986 250.972C60.0986 254.357 62.8426 257.101 66.2276 257.101Z" fill="#E6E6E6"/>
<path d="M161.679 257.101C165.064 257.101 167.808 254.357 167.808 250.972C167.808 247.587 165.064 244.843 161.679 244.843C158.294 244.843 155.55 247.587 155.55 250.972C155.55 254.357 158.294 257.101 161.679 257.101Z" fill="#E6E6E6"/>
<path d="M162.51 228.037L158.71 232.178L140.932 219.493L146.539 213.382L162.51 228.037Z" fill="#FFB6B6"/>
<path d="M167.492 230.664L155.241 244.014L155.072 243.859C153.694 242.595 152.875 240.834 152.795 238.966C152.714 237.097 153.38 235.273 154.644 233.895L154.644 233.894L155.032 229.758L161.057 226.906L162.127 225.74L167.492 230.664Z" fill="#2F2E41"/>
<path d="M164.994 274.243L159.375 274.243L156.701 252.567L164.995 252.568L164.994 274.243Z" fill="#FFB6B6"/>
<path d="M166.426 279.69L148.307 279.689V279.46C148.307 277.59 149.05 275.796 150.372 274.473C151.695 273.151 153.489 272.408 155.359 272.407H155.36L158.67 269.896L164.845 272.408L166.427 272.408L166.426 279.69Z" fill="#2F2E41"/>
<path d="M137.856 164.822C137.856 164.822 103.527 197.967 125.23 208.227H131.937C131.937 208.227 133.953 201.065 138.568 195.026C139.202 194.197 141.576 194.365 142.235 193.557C146.261 188.622 150.625 184.383 153.64 184.552L155.612 207.438L154.639 214.145C154.026 218.368 154.188 222.667 155.115 226.832L154.429 253.604L166.465 253.611C166.465 253.611 166.952 247.336 167.358 239.489C167.467 237.387 168.371 235.922 168.458 233.684C168.666 228.319 167.977 222.075 167.845 217.697L176.92 169.557L137.856 164.822Z" fill="#2F2E41"/>
<path d="M153.712 94.5957L148.114 102.084L134.698 109.975L142.589 130.493L142.889 145.759L142.154 147.601L142.984 150.617C142.984 150.617 142.601 154.147 140.56 156.767C136.992 161.349 131.543 166.329 137.065 167.584C145.746 169.557 176.524 173.897 178.102 170.346C178.648 169.118 178.58 163.924 178.258 157.654C178.197 156.482 176.902 155.206 176.827 153.977C176.77 153.056 177.935 152.188 177.872 151.253C177.168 140.834 176.129 130.099 176.129 130.099L179.218 101.371L166.863 98.1825L165.476 94.6466L153.712 94.5957Z" fill="#1F1F7A"/>
<path d="M123.581 206.258L125.416 208.577C125.416 208.577 142.292 220.383 142.871 221.487L145.538 224.01L151.991 217.112L148.636 212.906C145.95 209.54 142.48 206.883 138.53 205.169L133.387 200.606L123.581 206.258Z" fill="#2F2E41"/>
<path d="M134.305 173.121L137.378 143.375L138.189 131.132L129.587 129.577C129.587 129.577 128.299 137.993 127.172 142.932C126.06 147.806 128.654 172.468 128.722 173.118C128.091 173.683 127.645 174.427 127.445 175.25C127.245 176.073 127.3 176.938 127.602 177.73C127.904 178.522 128.44 179.203 129.137 179.684C129.835 180.165 130.663 180.422 131.51 180.423C132.357 180.423 133.185 180.166 133.883 179.686C134.581 179.206 135.118 178.525 135.42 177.734C135.723 176.942 135.779 176.078 135.58 175.254C135.38 174.43 134.936 173.686 134.305 173.121Z" fill="#FFB9B9"/>
<path d="M123.191 148.372L138.04 152.141L137.937 147.973L139.064 146.777L141.315 134.982L144.546 128.072L143.706 104.443L135.501 108.795L135.491 108.803C134.058 110.379 132.86 112.154 131.933 114.071C128.84 120.36 125.868 134.211 124.313 142.256C124.259 142.424 124.156 142.573 124.017 142.682C123.245 143.39 122.742 144.343 122.591 145.38C122.441 146.416 122.652 147.473 123.191 148.372L123.191 148.372Z" fill="#1F1F7A"/>
<path d="M211.371 155.966C211.371 155.966 193.294 136.908 193.125 136.549C191.863 126.96 188.231 122.73 187.686 123.189L178.312 126.436C178.312 126.436 181.101 135.266 182.989 140.51C184.792 145.522 205.583 157.762 205.93 158.366C205.557 159.189 205.443 160.105 205.602 160.994C205.762 161.882 206.188 162.702 206.823 163.343C207.458 163.985 208.273 164.419 209.16 164.587C210.047 164.755 210.965 164.65 211.791 164.286C212.617 163.921 213.313 163.315 213.787 162.546C214.26 161.778 214.49 160.883 214.444 159.981C214.399 159.08 214.081 158.213 213.532 157.496C212.983 156.779 212.23 156.246 211.371 155.966H211.371Z" fill="#FFB9B9"/>
<path d="M170.743 102.026C170.743 102.026 179.945 97.5166 183.514 106.374C185.471 111.374 190.475 123.51 192.968 130.981C192.985 131.028 193.008 131.073 193.036 131.115C193.703 132.106 194.063 133.272 194.071 134.466C194.07 134.553 194.079 134.64 194.098 134.725C194.098 134.725 183.986 136.695 180.979 141.995L179.786 140.701L179.574 139.794L170.849 116.515L170.743 102.026Z" fill="#1F1F7A"/>
<path d="M321.016 138.176H213.283C212.323 138.175 211.403 137.794 210.724 137.115C210.045 136.436 209.663 135.516 209.662 134.556V118.777C209.663 117.817 210.045 116.897 210.724 116.218C211.403 115.54 212.323 115.158 213.283 115.157H321.016C321.976 115.158 322.896 115.54 323.575 116.218C324.254 116.897 324.635 117.817 324.636 118.777V134.556C324.635 135.516 324.254 136.436 323.575 137.115C322.896 137.794 321.976 138.175 321.016 138.176Z" fill="#E6E6E6"/>
<path d="M310.549 135.734H215.726C214.766 135.733 213.846 135.352 213.167 134.673C212.488 133.994 212.107 133.074 212.105 132.114V121.222C212.107 120.262 212.488 119.342 213.167 118.663C213.846 117.984 214.766 117.602 215.726 117.601H318.574C319.534 117.602 320.454 117.984 321.133 118.663C321.812 119.342 322.194 120.262 322.195 121.222V124.088C322.191 127.176 320.963 130.136 318.78 132.32C316.597 134.503 313.636 135.731 310.549 135.734Z" fill="white"/>
<path d="M277.84 125.544H234.539C234.292 125.544 234.054 125.446 233.879 125.271C233.704 125.096 233.605 124.858 233.605 124.611C233.605 124.363 233.704 124.125 233.879 123.95C234.054 123.775 234.292 123.677 234.539 123.677H277.84C278.087 123.677 278.325 123.775 278.5 123.95C278.675 124.125 278.773 124.363 278.773 124.611C278.773 124.858 278.675 125.096 278.5 125.271C278.325 125.446 278.087 125.544 277.84 125.544Z" fill="#1F1F7A"/>
<path d="M299.759 129.364H234.539C234.292 129.364 234.054 129.265 233.879 129.09C233.704 128.915 233.605 128.678 233.605 128.43C233.605 128.182 233.704 127.945 233.879 127.77C234.054 127.594 234.292 127.496 234.539 127.496H299.759C300.007 127.496 300.244 127.594 300.419 127.77C300.594 127.945 300.693 128.182 300.693 128.43C300.693 128.678 300.594 128.915 300.419 129.09C300.244 129.265 300.007 129.364 299.759 129.364Z" fill="#E6E6E6"/>
<path d="M321.016 171.654H213.283C212.323 171.652 211.403 171.271 210.724 170.592C210.045 169.913 209.663 168.993 209.662 168.033V152.254C209.663 151.295 210.045 150.374 210.724 149.695C211.403 149.017 212.323 148.635 213.283 148.634H321.016C321.976 148.635 322.896 149.017 323.575 149.695C324.254 150.374 324.635 151.295 324.636 152.254V168.033C324.635 168.993 324.254 169.913 323.575 170.592C322.896 171.271 321.976 171.652 321.016 171.654Z" fill="#E6E6E6"/>
<path d="M310.549 169.211H215.726C214.766 169.21 213.846 168.829 213.167 168.15C212.488 167.471 212.107 166.551 212.105 165.591V154.699C212.107 153.739 212.488 152.819 213.167 152.14C213.846 151.461 214.766 151.079 215.726 151.078H318.574C319.534 151.079 320.454 151.461 321.133 152.14C321.812 152.819 322.194 153.739 322.195 154.699V157.565C322.191 160.653 320.963 163.613 318.78 165.797C316.597 167.98 313.636 169.208 310.549 169.211Z" fill="white"/>
<path d="M277.84 159.021H234.539C234.417 159.021 234.295 158.997 234.182 158.95C234.069 158.903 233.966 158.835 233.879 158.748C233.792 158.661 233.723 158.558 233.677 158.445C233.63 158.332 233.605 158.21 233.605 158.088C233.605 157.965 233.63 157.844 233.677 157.73C233.723 157.617 233.792 157.514 233.879 157.427C233.966 157.341 234.069 157.272 234.182 157.225C234.295 157.178 234.417 157.154 234.539 157.154H277.84C278.087 157.154 278.325 157.252 278.5 157.427C278.675 157.602 278.773 157.84 278.773 158.088C278.773 158.335 278.675 158.573 278.5 158.748C278.325 158.923 278.087 159.021 277.84 159.021Z" fill="#1F1F7A"/>
<path d="M299.759 162.84H234.539C234.417 162.84 234.295 162.816 234.182 162.769C234.069 162.722 233.966 162.653 233.879 162.567C233.792 162.48 233.723 162.377 233.677 162.264C233.63 162.15 233.605 162.029 233.605 161.906C233.605 161.784 233.63 161.662 233.677 161.549C233.723 161.436 233.792 161.333 233.879 161.246C233.966 161.159 234.069 161.091 234.182 161.044C234.295 160.997 234.417 160.973 234.539 160.973H299.759C300.007 160.973 300.244 161.071 300.419 161.246C300.594 161.421 300.693 161.659 300.693 161.906C300.693 162.154 300.594 162.392 300.419 162.567C300.244 162.742 300.007 162.84 299.759 162.84Z" fill="#E6E6E6"/>
<path d="M321.016 205.131H213.283C212.323 205.129 211.403 204.748 210.724 204.069C210.045 203.39 209.663 202.47 209.662 201.51V185.732C209.663 184.772 210.045 183.851 210.724 183.173C211.403 182.494 212.323 182.112 213.283 182.111H321.016C321.976 182.112 322.896 182.494 323.575 183.173C324.254 183.851 324.635 184.772 324.636 185.732V201.51C324.635 202.47 324.254 203.39 323.575 204.069C322.896 204.748 321.976 205.129 321.016 205.131Z" fill="#E6E6E6"/>
<path d="M310.549 202.689H215.726C214.766 202.687 213.846 202.306 213.167 201.627C212.488 200.948 212.107 200.028 212.105 199.068V188.176C212.107 187.216 212.488 186.296 213.167 185.617C213.846 184.938 214.766 184.556 215.726 184.555H318.574C319.534 184.556 320.454 184.938 321.133 185.617C321.812 186.296 322.194 187.216 322.195 188.176V191.042C322.191 194.13 320.963 197.09 318.78 199.274C316.597 201.457 313.636 202.685 310.549 202.689Z" fill="white"/>
<path d="M277.84 192.498H234.539C234.292 192.498 234.054 192.4 233.879 192.225C233.704 192.05 233.605 191.812 233.605 191.565C233.605 191.317 233.704 191.079 233.879 190.904C234.054 190.729 234.292 190.631 234.539 190.631H277.84C278.087 190.631 278.325 190.729 278.5 190.904C278.675 191.079 278.773 191.317 278.773 191.565C278.773 191.812 278.675 192.05 278.5 192.225C278.325 192.4 278.087 192.498 277.84 192.498Z" fill="#1F1F7A"/>
<path d="M299.759 196.317H234.539C234.292 196.317 234.054 196.219 233.879 196.044C233.704 195.869 233.605 195.631 233.605 195.383C233.605 195.136 233.704 194.898 233.879 194.723C234.054 194.548 234.292 194.45 234.539 194.45H299.759C300.007 194.45 300.244 194.548 300.419 194.723C300.594 194.898 300.693 195.136 300.693 195.383C300.693 195.631 300.594 195.869 300.419 196.044C300.244 196.219 300.007 196.317 299.759 196.317Z" fill="#E6E6E6"/>
<path d="M159.611 92.192C165.834 92.192 170.879 87.1474 170.879 80.9246C170.879 74.7018 165.834 69.6572 159.611 69.6572C153.388 69.6572 148.344 74.7018 148.344 80.9246C148.344 87.1474 153.388 92.192 159.611 92.192Z" fill="#FFB9B9"/>
<path d="M151.326 88.171C151.191 88.1715 151.057 88.1499 150.929 88.1069C150.426 87.8864 150.005 87.5128 149.728 87.0392C147.788 84.2491 146.851 80.5292 146.944 75.9826C146.983 74.0591 147.201 71.5998 148.548 69.6395C149.681 67.9911 151.972 66.683 154.108 67.3396C154.083 66.9126 154.178 66.4872 154.381 66.1109C154.585 65.7346 154.889 65.4222 155.259 65.2086C156.068 64.7132 157.042 64.622 157.901 64.5413C160.07 64.338 162.312 64.1279 164.508 64.544C166.97 65.0111 168.984 66.2803 170.032 68.0262L170.053 68.0811L170.266 69.1157C170.295 69.2548 170.353 69.386 170.438 69.5003C170.522 69.6147 170.63 69.7094 170.754 69.778C170.879 69.8465 171.016 69.8874 171.158 69.8976C171.3 69.9079 171.442 69.8873 171.575 69.8373C171.72 69.7827 171.876 69.7668 172.029 69.7913C172.183 69.8158 172.327 69.8798 172.447 69.977C172.568 70.0741 172.661 70.2011 172.718 70.3453C172.775 70.4896 172.793 70.6461 172.771 70.7995L172.711 71.2111L173.331 71.0952C173.486 71.0663 173.646 71.079 173.794 71.132C173.943 71.185 174.074 71.2764 174.176 71.3969C174.278 71.5174 174.345 71.6626 174.373 71.8179C174.4 71.9732 174.385 72.1329 174.331 72.2808L174.156 72.754C174.284 72.7548 174.411 72.7819 174.528 72.8336C174.645 72.8852 174.751 72.9603 174.838 73.0543C174.963 73.189 175.042 73.3603 175.063 73.5431C175.084 73.7259 175.046 73.9106 174.955 74.0702C174.263 75.2539 173.281 76.242 172.101 76.9414C171.457 77.3292 170.752 77.6064 170.016 77.7615C165.239 78.7923 160.315 78.9404 155.485 78.1984C155.771 79.151 155.881 80.1477 155.81 81.1397C155.655 82.3801 154.927 83.4037 153.954 83.7474C153.733 83.8194 153.506 83.8741 153.276 83.9109C153.057 83.9452 152.84 83.9978 152.629 84.0683C152.316 84.1831 152.039 84.3785 151.826 84.6345C151.613 84.8906 151.471 85.1984 151.415 85.5268C151.359 85.8552 151.39 86.1926 151.506 86.505C151.622 86.8174 151.818 87.0938 152.074 87.3062L152.554 86.8064L152.398 87.4418C152.365 87.5655 152.307 87.6809 152.227 87.7807C152.147 87.8804 152.047 87.9621 151.933 88.0206C151.746 88.1202 151.538 88.1719 151.326 88.171Z" fill="#2F2E41"/>
<path d="M308.068 258.3L308.524 248.05C313.276 245.51 318.576 244.168 323.965 244.142C316.549 250.205 317.476 261.893 312.448 270.046C310.86 272.577 308.723 274.719 306.195 276.311C303.668 277.904 300.814 278.908 297.846 279.248L291.639 283.048C290.788 278.3 290.976 273.425 292.19 268.757C293.404 264.089 295.616 259.74 298.672 256.009C300.408 253.933 302.398 252.084 304.596 250.505C306.082 254.425 308.068 258.3 308.068 258.3Z" fill="#F2F2F2"/>
<path d="M352.5 283.299C352.5 283.361 352.488 283.423 352.464 283.481C352.44 283.538 352.406 283.591 352.361 283.635C352.317 283.679 352.265 283.714 352.207 283.737C352.15 283.761 352.088 283.773 352.026 283.773H7.97426C7.84848 283.773 7.72785 283.723 7.63891 283.634C7.54997 283.545 7.5 283.425 7.5 283.299C7.5 283.173 7.54997 283.053 7.63891 282.964C7.72785 282.875 7.84848 282.825 7.97426 282.825H352.026C352.088 282.825 352.15 282.837 352.207 282.86C352.265 282.884 352.317 282.919 352.361 282.963C352.406 283.007 352.44 283.06 352.464 283.117C352.488 283.175 352.5 283.237 352.5 283.299Z" fill="#CCCCCC"/>
</g>
<defs>
<clipPath id="clip0_1535_5070">
<rect width="345" height="283.547" fill="white" transform="translate(7.5 0.226562)"/>
</clipPath>
</defs>
</svg>
