<svg width="360" height="230" viewBox="0 0 360 230" fill="none" xmlns="http://www.w3.org/2000/svg">
<g clip-path="url(#clip0_1535_5109)">
<path d="M284.19 175.858L295.203 177.579C298.931 173.065 301.501 167.709 302.69 161.977C294.637 168.569 282.39 165.066 272.625 168.665C269.588 169.811 266.848 171.625 264.608 173.974C262.367 176.323 260.684 179.146 259.683 182.234L254.301 188.025C259.173 189.954 264.405 190.804 269.637 190.516C274.869 190.228 279.977 188.809 284.607 186.356C287.192 184.955 289.589 183.234 291.743 181.233C287.89 178.807 284.19 175.858 284.19 175.858Z" fill="#F2F2F2"/>
<path d="M280.28 158.242L290.905 154.871C292.229 149.168 292.14 143.228 290.648 137.567C286.38 147.06 273.856 149.386 266.721 156.963C264.514 159.343 262.871 162.189 261.913 165.291C260.955 168.392 260.708 171.67 261.189 174.88L258.954 182.464C264.175 182.017 269.237 180.444 273.791 177.853C278.346 175.261 282.284 171.713 285.336 167.453C287.024 165.046 288.402 162.436 289.438 159.685C284.907 159.232 280.28 158.242 280.28 158.242Z" fill="#F2F2F2"/>
<path d="M302.749 191.533C302.749 191.59 302.738 191.646 302.716 191.699C302.694 191.751 302.663 191.799 302.622 191.839C302.582 191.879 302.534 191.911 302.482 191.933C302.429 191.954 302.373 191.966 302.316 191.965H57.6834C57.5687 191.965 57.4587 191.92 57.3776 191.839C57.2965 191.758 57.251 191.648 57.251 191.533C57.251 191.418 57.2965 191.308 57.3776 191.227C57.4587 191.146 57.5687 191.101 57.6834 191.101H302.316C302.373 191.1 302.429 191.111 302.482 191.133C302.534 191.155 302.582 191.187 302.622 191.227C302.663 191.267 302.694 191.315 302.716 191.367C302.738 191.42 302.749 191.476 302.749 191.533Z" fill="#CCCCCC"/>
<path d="M158.622 173.099C201.765 173.099 236.74 138.122 236.74 94.9762C236.74 51.8302 201.765 16.8535 158.622 16.8535C115.479 16.8535 80.5039 51.8302 80.5039 94.9762C80.5039 138.122 115.479 173.099 158.622 173.099Z" fill="#E6E6E6"/>
<path d="M225.84 94.9762C225.848 105.465 223.398 115.81 218.686 125.182C213.975 134.553 207.133 142.689 198.709 148.939C198.146 149.361 197.572 149.771 196.994 150.171C185.73 158.001 172.34 162.198 158.622 162.198C144.904 162.198 131.514 158.001 120.25 150.171C119.672 149.771 119.098 149.361 118.535 148.939C110.117 142.684 103.28 134.546 98.5687 125.176C93.8578 115.806 91.4043 105.464 91.4043 94.9762C91.4043 84.4885 93.8578 74.1463 98.5687 64.7763C103.28 55.4063 110.117 47.2685 118.535 41.0134C119.098 40.5919 119.672 40.1813 120.25 39.7816C131.514 31.9513 144.904 27.7544 158.622 27.7544C172.34 27.7544 185.73 31.9513 196.994 39.7816C197.572 40.1813 198.146 40.5919 198.709 41.0134C207.133 47.263 213.975 55.3997 218.686 64.7709C223.398 74.1422 225.848 84.4871 225.84 94.9762Z" fill="white"/>
<path d="M158.622 156.384C192.535 156.384 220.027 128.891 220.027 94.9759C220.027 61.0612 192.535 33.5679 158.622 33.5679C124.709 33.5679 97.2178 61.0612 97.2178 94.9759C97.2178 128.891 124.709 156.384 158.622 156.384Z" fill="#1F1F7A"/>
<path opacity="0.2" d="M158.782 33.7397C157.851 33.7397 156.926 33.7641 156.006 33.8051C171.525 35.1689 185.946 42.3815 196.347 53.9816C206.747 65.5816 212.35 80.7017 212.019 96.2785C211.689 111.855 205.45 126.724 194.566 137.872C183.683 149.021 168.969 155.615 153.405 156.319C155.178 156.473 156.97 156.556 158.782 156.556C175.068 156.556 190.686 150.086 202.202 138.57C213.717 127.054 220.187 111.434 220.187 95.1478C220.187 78.8614 213.717 63.242 202.202 51.7258C190.686 40.2095 175.068 33.7398 158.782 33.7398V33.7397Z" fill="black"/>
<path d="M158.804 29.2075C158.274 29.2084 157.767 29.4193 157.392 29.7939C157.017 30.1685 156.807 30.6763 156.806 31.206V39.9267C156.806 40.4567 157.016 40.965 157.391 41.3398C157.766 41.7146 158.274 41.9252 158.804 41.9252C159.334 41.9252 159.842 41.7146 160.217 41.3398C160.592 40.965 160.802 40.4567 160.802 39.9267V31.206C160.801 30.6763 160.591 30.1685 160.216 29.7939C159.841 29.4193 159.334 29.2084 158.804 29.2075Z" fill="white"/>
<path d="M198.71 41.0129C198.146 40.5914 197.572 40.1808 196.995 39.7811C196.648 39.7585 196.301 39.8267 195.989 39.979C195.677 40.1313 195.41 40.3624 195.214 40.6495L190.306 47.855C190.007 48.293 189.895 48.8315 189.994 49.3521C190.093 49.8727 190.394 50.3328 190.832 50.631C191.27 50.9293 191.809 51.0414 192.329 50.9426C192.85 50.8438 193.31 50.5422 193.608 50.1042L198.517 42.8987C198.704 42.6254 198.819 42.3096 198.853 41.9803C198.886 41.6509 198.837 41.3184 198.71 41.0129Z" fill="white"/>
<path d="M221.011 73.8682C220.913 73.6253 220.767 73.4041 220.583 73.2175C220.399 73.0309 220.18 72.8823 219.938 72.7804C219.697 72.6785 219.437 72.6252 219.175 72.6236C218.913 72.6219 218.653 72.672 218.41 72.7708L210.329 76.052C209.839 76.2518 209.448 76.6382 209.242 77.1262C209.036 77.6143 209.033 78.1641 209.232 78.6548C209.431 79.1455 209.817 79.537 210.305 79.7432C210.793 79.9495 211.343 79.9536 211.834 79.7546L219.914 76.4735C220.404 76.2727 220.795 75.8858 221.001 75.3975C221.207 74.9092 221.21 74.3593 221.011 73.8682Z" fill="white"/>
<path d="M126.939 47.855L122.031 40.6495C121.835 40.3624 121.568 40.1313 121.256 39.979C120.944 39.8267 120.597 39.7585 120.25 39.7811C119.673 40.1808 119.099 40.5914 118.535 41.0129C118.408 41.3184 118.358 41.6509 118.392 41.9803C118.426 42.3096 118.541 42.6254 118.728 42.8987L123.637 50.1042C123.935 50.5422 124.395 50.8438 124.916 50.9426C125.436 51.0414 125.975 50.9293 126.413 50.631C126.851 50.3328 127.152 49.8727 127.251 49.3521C127.35 48.8315 127.238 48.293 126.939 47.855Z" fill="white"/>
<path d="M106.916 76.052L98.8349 72.7708C98.3439 72.5715 97.7939 72.5753 97.3058 72.7814C96.8176 72.9876 96.4314 73.3792 96.2319 73.8701C96.0325 74.3611 96.0362 74.9111 96.2422 75.3994C96.4483 75.8876 96.8398 76.2739 97.3307 76.4735L105.411 79.7546C105.902 79.9536 106.452 79.9494 106.94 79.7432C107.428 79.537 107.814 79.1455 108.013 78.6548C108.212 78.1641 108.209 77.6143 108.003 77.1262C107.797 76.6382 107.406 76.2518 106.916 76.052V76.052Z" fill="white"/>
<path d="M158.804 148.027C158.274 148.028 157.767 148.239 157.392 148.613C157.017 148.988 156.807 149.496 156.806 150.025V158.746C156.806 159.276 157.016 159.784 157.391 160.159C157.766 160.534 158.274 160.745 158.804 160.745C159.334 160.745 159.842 160.534 160.217 160.159C160.592 159.784 160.802 159.276 160.802 158.746V150.025C160.801 149.496 160.591 148.988 160.216 148.613C159.841 148.239 159.334 148.028 158.804 148.027Z" fill="white"/>
<path d="M198.517 147.053L193.608 139.848C193.461 139.631 193.272 139.445 193.052 139.301C192.833 139.157 192.587 139.058 192.329 139.009C192.072 138.96 191.807 138.963 191.55 139.016C191.293 139.069 191.049 139.173 190.832 139.321C190.615 139.468 190.43 139.657 190.286 139.877C190.142 140.096 190.043 140.342 189.994 140.6C189.945 140.857 189.947 141.122 190.001 141.379C190.054 141.636 190.158 141.88 190.306 142.097L195.214 149.302C195.41 149.589 195.677 149.82 195.989 149.973C196.301 150.125 196.648 150.193 196.995 150.171C197.572 149.771 198.146 149.36 198.71 148.939C198.837 148.633 198.886 148.301 198.853 147.971C198.819 147.642 198.704 147.326 198.517 147.053Z" fill="white"/>
<path d="M219.914 113.478L211.833 110.197C211.342 109.998 210.792 110.002 210.304 110.208C209.816 110.414 209.429 110.805 209.23 111.296C209.031 111.787 209.034 112.337 209.24 112.826C209.446 113.314 209.838 113.7 210.329 113.9L218.409 117.181C218.9 117.38 219.45 117.376 219.938 117.169C220.426 116.963 220.812 116.572 221.011 116.081C221.21 115.59 221.207 115.041 221.001 114.552C220.795 114.064 220.404 113.678 219.914 113.478V113.478Z" fill="white"/>
<path d="M126.413 139.321C125.975 139.023 125.436 138.911 124.916 139.01C124.395 139.108 123.935 139.41 123.637 139.848L118.728 147.053C118.541 147.327 118.426 147.642 118.392 147.972C118.358 148.301 118.408 148.634 118.535 148.939C119.099 149.361 119.673 149.771 120.25 150.171C120.597 150.194 120.944 150.125 121.256 149.973C121.568 149.821 121.835 149.59 122.031 149.302L126.939 142.097C127.087 141.88 127.191 141.636 127.244 141.379C127.298 141.123 127.3 140.858 127.251 140.6C127.202 140.342 127.103 140.096 126.959 139.877C126.815 139.658 126.629 139.469 126.413 139.321Z" fill="white"/>
<path d="M108.012 111.294C107.914 111.052 107.768 110.83 107.584 110.644C107.4 110.457 107.181 110.309 106.939 110.207C106.697 110.105 106.438 110.051 106.176 110.05C105.914 110.048 105.654 110.098 105.411 110.197L97.3303 113.478C96.8398 113.678 96.4487 114.064 96.2429 114.553C96.0371 115.041 96.0335 115.59 96.2329 116.081C96.4322 116.572 96.8182 116.963 97.3061 117.169C97.7939 117.376 98.3437 117.38 98.8345 117.181L106.915 113.9C107.405 113.699 107.796 113.312 108.002 112.824C108.208 112.335 108.211 111.786 108.012 111.294Z" fill="white"/>
<path d="M161.397 93.9846C161.581 95.0769 161.325 96.1979 160.684 97.1016C160.043 98.0052 159.07 98.6177 157.978 98.8047L122.517 104.837C121.976 104.929 121.422 104.914 120.887 104.792C120.352 104.67 119.846 104.443 119.399 104.126C118.951 103.808 118.571 103.406 118.279 102.941C117.987 102.477 117.789 101.959 117.697 101.418C117.605 100.877 117.62 100.323 117.742 99.7884C117.864 99.2534 118.09 98.7477 118.408 98.3001C118.725 97.8525 119.128 97.4718 119.592 97.1798C120.057 96.8877 120.574 96.6901 121.115 96.598L156.577 90.5658C157.669 90.3812 158.79 90.6376 159.694 91.2785C160.597 91.9194 161.21 92.8926 161.397 93.9846Z" fill="#3F3D56"/>
<path d="M198.719 133.275C198.21 133.787 197.518 134.077 196.795 134.08C196.073 134.083 195.379 133.799 194.865 133.29L156.692 95.4139C156.179 94.9047 155.89 94.2129 155.888 93.4906C155.885 92.7682 156.17 92.0744 156.678 91.5617C157.187 91.0489 157.878 90.7591 158.601 90.7559C159.323 90.7527 160.017 91.0364 160.53 91.5447L198.704 129.421C199.216 129.931 199.505 130.622 199.508 131.345C199.511 132.068 199.227 132.762 198.719 133.275Z" fill="#3F3D56"/>
<path d="M158.622 99.6998C161.231 99.6998 163.345 97.585 163.345 94.9761C163.345 92.3673 161.231 90.2524 158.622 90.2524C156.013 90.2524 153.898 92.3673 153.898 94.9761C153.898 97.585 156.013 99.6998 158.622 99.6998Z" fill="#CCCCCC"/>
<path d="M126.087 13.0664C118.837 24.466 107.774 32.0313 94.1316 37.0012C93.862 37.2031 93.5553 37.35 93.2289 37.4333C92.9026 37.5167 92.5631 37.535 92.2297 37.4871C91.8963 37.4393 91.5756 37.3262 91.2859 37.1544C90.9962 36.9826 90.7431 36.7554 90.5412 36.4858C83.1306 26.5906 84.8039 12.4483 94.5844 4.88725C96.949 3.06241 99.6525 1.72547 102.538 0.954067C105.423 0.182659 108.433 -0.00786102 111.393 0.393572C114.353 0.795006 117.203 1.78039 119.779 3.29253C122.355 4.80466 124.604 6.81343 126.398 9.20219L126.603 9.47588C126.804 9.74549 126.951 10.0522 127.035 10.3786C127.118 10.7049 127.136 11.0445 127.088 11.3779C127.041 11.7113 126.928 12.032 126.756 12.3218C126.584 12.6115 126.357 12.8645 126.087 13.0664Z" fill="#E6E6E6"/>
<path d="M190.847 9.20219C192.64 6.81342 194.89 4.80466 197.465 3.29252C200.041 1.78039 202.892 0.795007 205.851 0.393574C208.811 -0.00785953 211.821 0.182655 214.706 0.954063C217.592 1.72547 220.295 3.0624 222.66 4.88724C232.441 12.4483 234.114 26.5906 226.703 36.4858C226.501 36.7554 226.248 36.9826 225.959 37.1544C225.669 37.3262 225.348 37.4393 225.015 37.4871C224.681 37.535 224.342 37.5167 224.015 37.4333C223.689 37.35 223.382 37.2031 223.113 37.0012C210.448 32.152 200.062 23.7605 191.157 13.0664C190.613 12.6586 190.253 12.0513 190.156 11.3779C190.059 10.7045 190.234 10.0204 190.642 9.47587L190.847 9.20219Z" fill="#E6E6E6"/>
<path d="M187.669 162.659C187.207 162.919 186.867 163.35 186.723 163.86C186.579 164.37 186.643 164.916 186.901 165.379L198.434 185.99C198.693 186.452 199.125 186.793 199.635 186.937C200.145 187.081 200.691 187.016 201.153 186.757C201.616 186.499 201.956 186.067 202.101 185.557C202.245 185.047 202.18 184.5 201.922 184.038L190.388 163.427C190.129 162.965 189.697 162.625 189.187 162.481C188.677 162.337 188.131 162.401 187.669 162.659Z" fill="#E6E6E6"/>
<path d="M126.856 163.427L115.323 184.038C115.064 184.5 115 185.046 115.144 185.556C115.288 186.066 115.628 186.498 116.091 186.757C116.553 187.016 117.1 187.08 117.61 186.936C118.12 186.792 118.552 186.452 118.81 185.989L130.343 165.379C130.472 165.15 130.554 164.898 130.584 164.637C130.615 164.376 130.594 164.112 130.523 163.859C130.452 163.607 130.331 163.371 130.169 163.165C130.006 162.959 129.805 162.786 129.576 162.658C129.347 162.53 129.095 162.448 128.834 162.418C128.573 162.387 128.309 162.408 128.057 162.479C127.804 162.55 127.568 162.671 127.362 162.833C127.156 162.996 126.984 163.198 126.856 163.427H126.856Z" fill="#E6E6E6"/>
<path d="M200.77 191.267C204.181 191.267 206.946 188.501 206.946 185.09C206.946 181.678 204.181 178.913 200.77 178.913C197.358 178.913 194.593 181.678 194.593 185.09C194.593 188.501 197.358 191.267 200.77 191.267Z" fill="#E6E6E6"/>
<path d="M205.129 33.2049C208.54 33.2049 211.306 30.4393 211.306 27.0277C211.306 23.6162 208.54 20.8506 205.129 20.8506C201.718 20.8506 198.952 23.6162 198.952 27.0277C198.952 30.4393 201.718 33.2049 205.129 33.2049Z" fill="#E6E6E6"/>
<path d="M158.259 18.6702C161.67 18.6702 164.436 15.9046 164.436 12.4931C164.436 9.08152 161.67 6.31592 158.259 6.31592C154.847 6.31592 152.082 9.08152 152.082 12.4931C152.082 15.9046 154.847 18.6702 158.259 18.6702Z" fill="#E6E6E6"/>
<path d="M113.567 32.4783C116.979 32.4783 119.744 29.7127 119.744 26.3012C119.744 22.8896 116.979 20.124 113.567 20.124C110.156 20.124 107.391 22.8896 107.391 26.3012C107.391 29.7127 110.156 32.4783 113.567 32.4783Z" fill="#E6E6E6"/>
<path d="M117.564 191.267C120.976 191.267 123.741 188.501 123.741 185.09C123.741 181.678 120.976 178.913 117.564 178.913C114.153 178.913 111.388 181.678 111.388 185.09C111.388 188.501 114.153 191.267 117.564 191.267Z" fill="#E6E6E6"/>
<path d="M195.925 129.801C196.168 130.182 196.492 130.505 196.874 130.748C197.256 130.99 197.687 131.146 198.135 131.204C198.584 131.262 199.04 131.221 199.471 131.084C199.902 130.947 200.298 130.717 200.63 130.41L210.322 135.604L209.803 129.913L200.678 125.854C200.126 125.329 199.401 125.025 198.64 125C197.878 124.974 197.134 125.229 196.548 125.716C195.963 126.202 195.575 126.887 195.46 127.64C195.346 128.393 195.511 129.162 195.925 129.801H195.925Z" fill="#FFB7B7"/>
<path d="M202.986 131.787L206.784 126.544L225.082 135.194L247.852 130.922C248.977 130.711 250.135 130.75 251.244 131.037C252.353 131.323 253.384 131.851 254.266 132.581C255.148 133.312 255.859 134.228 256.347 135.263C256.835 136.299 257.089 137.43 257.091 138.575C257.093 140.644 256.274 142.628 254.814 144.093C253.354 145.559 251.373 146.385 249.305 146.391L223.211 146.44L202.986 131.787Z" fill="#3F3D56"/>
<path d="M197.136 222.346L193.293 220.508L198.572 204.445L204.243 207.158L197.136 222.346Z" fill="#FFB7B7"/>
<path d="M222.899 219.756C222.62 219.931 222.341 220.103 222.058 220.276C221.497 220.62 220.929 220.959 220.362 221.292C220.077 221.458 219.789 221.625 219.504 221.789V221.797L219.487 221.8L219.481 221.803L219.047 221.91L218.423 220.262L218.135 219.502L217.728 218.427L216.983 216.459L213.06 206.099L219.159 204.595L219.388 205.529H219.391L219.504 205.992L221.635 214.636L222.07 216.403L222.084 216.456L222.346 217.512L222.572 218.427L222.823 219.449L222.899 219.756Z" fill="#FFB7B7"/>
<path d="M259.288 183.375C258.901 183.996 258.506 184.614 258.108 185.227C257.368 186.367 256.609 187.491 255.83 188.597C255.83 188.6 255.827 188.6 255.824 188.603C255.37 189.024 254.868 189.391 254.328 189.695C254.306 189.712 254.28 189.724 254.258 189.738C253.86 189.957 253.437 190.127 252.999 190.243C252.841 190.282 252.68 190.322 252.522 190.362C251.951 190.497 251.387 190.613 250.825 190.714C249.826 190.892 248.838 191.019 247.856 191.098C247.777 191.107 247.698 191.112 247.619 191.118C243.579 191.414 239.647 190.937 235.543 190.155C233.516 189.772 231.447 189.311 229.305 188.834C228.605 188.676 227.902 188.521 227.191 188.366C227.137 188.354 227.081 188.34 227.024 188.329C226.008 188.106 224.975 187.886 223.916 187.668C222.584 187.395 221.209 187.129 219.781 186.878L219.883 188.891C219.967 190.439 220.289 191.965 220.837 193.416C221.447 195.2 221.929 196.611 220.91 199.55L220.419 200.973C220.674 201.679 220.761 202.435 220.674 203.181C220.588 203.927 220.329 204.643 219.92 205.272L219.821 205.421L223.916 215.784L224.182 216.456H222.085L219.505 216.459H215.132L208.824 203.801L208.521 203.197V203.166L209.174 178.841C209.182 178.627 209.199 178.41 209.227 178.195C209.342 177.22 209.65 176.277 210.133 175.422C210.617 174.567 211.265 173.817 212.041 173.215C212.785 172.634 213.637 172.207 214.548 171.957C215.458 171.708 216.409 171.643 217.345 171.765L219.505 172.044L223.916 172.614L227.024 173.018L227.086 173.026L236.252 174.212L236.909 171.53L237.031 171.485L240.889 170.071L254.235 165.179L254.269 165.168L255.147 164.846L255.251 165.015C255.282 165.066 255.313 165.117 255.341 165.168C256.209 166.723 256.916 168.363 257.45 170.062C258.349 172.838 259.088 175.663 259.666 178.522C259.691 178.647 259.714 178.76 259.734 178.861L259.742 178.892C259.75 178.94 259.756 178.971 259.759 178.98C260.067 180.261 259.852 181.825 259.288 183.375Z" fill="#2F2E41"/>
<path d="M259.851 174.411C259.809 174.23 259.755 174.047 259.699 173.869C259.25 172.522 258.728 171.201 258.135 169.911C257.469 168.443 256.67 166.871 255.719 165.169C255.258 164.344 254.764 163.487 254.234 162.597C253.969 162.151 253.693 161.697 253.407 161.234C253.396 161.212 253.383 161.192 253.37 161.172L253.288 161.036L240.084 162.803L235.167 163.461L234.873 165.911L234.802 166.518C234.8 166.518 234.8 166.518 234.802 166.521L234.605 168.175V168.178L234.342 170.363L234.32 170.36L227.023 169.414L219.503 168.441L215.464 167.918C214.528 167.796 213.577 167.862 212.667 168.111C211.756 168.36 210.904 168.788 210.16 169.369C209.384 169.971 208.736 170.721 208.253 171.576C207.77 172.431 207.461 173.374 207.346 174.349C207.321 174.546 207.304 174.75 207.295 174.95L203.485 183.98C201.204 189.381 199.752 195.095 199.177 200.929L196.383 209.863L196.781 209.9L202.703 210.45L204.267 210.597L207.71 205.57C208.103 204.997 208.475 204.407 208.822 203.802C209.394 202.816 209.902 201.794 210.344 200.742L217.793 183.015C218.369 183.114 218.939 183.208 219.503 183.297C222.114 183.721 224.621 184.066 227.023 184.333C234.833 185.205 241.597 185.273 247.617 184.534C249.308 184.328 250.943 184.057 252.52 183.721C253.099 183.599 253.67 183.468 254.234 183.328C254.366 183.297 254.496 183.266 254.626 183.232C255.793 182.931 256.865 182.343 257.745 181.52C258.626 180.698 259.286 179.667 259.665 178.524C260.117 177.198 260.182 175.772 259.851 174.411Z" fill="#2F2E41"/>
<path d="M198.364 219.723L194.206 217.73L193.554 217.417L192.513 219.975L185.242 221.575C184.882 221.654 184.557 221.846 184.314 222.122C184.072 222.399 183.924 222.746 183.892 223.113C183.861 223.479 183.947 223.847 184.139 224.161C184.331 224.475 184.619 224.719 184.959 224.858L192.064 227.757L194.319 225.727L193.766 228.452L196.442 229.544L199.375 220.209L198.364 219.723Z" fill="#2F2E41"/>
<path d="M223.916 215.784L224.182 216.456H223.916V215.784Z" fill="#2F2E41"/>
<path d="M222.468 216.599L218.111 218.109L217.427 218.345L218.487 220.895L214.446 227.149C214.246 227.458 214.15 227.823 214.172 228.19C214.194 228.558 214.333 228.909 214.569 229.191C214.804 229.474 215.124 229.674 215.482 229.762C215.839 229.85 216.215 229.822 216.555 229.681L223.643 226.741L223.818 223.712L225.341 226.037L228.011 224.93L223.527 216.233L222.468 216.599Z" fill="#2F2E41"/>
<path d="M258.764 178.5C258.506 178.5 258.251 178.437 258.022 178.316L235.032 166.303L234.766 165.215L234.266 161.773L234.273 161.741L236.459 151.66C236.419 151.574 236.335 151.432 236.241 151.271C235.264 149.617 232.294 144.584 237.963 137.652L247.917 126.047L256.46 125.679L256.557 125.802C258.842 128.669 260.382 132.057 261.042 135.663C261.702 139.269 261.461 142.983 260.34 146.473L259.45 162.54L260.404 165.784C260.962 167.691 260.87 169.729 260.142 171.578L260.361 176.832C260.369 177.047 260.335 177.262 260.258 177.464C260.182 177.665 260.066 177.849 259.917 178.005C259.768 178.161 259.589 178.285 259.391 178.37C259.193 178.455 258.98 178.499 258.764 178.5L258.764 178.5Z" fill="#3F3D56"/>
<path d="M238.822 191.751C239.211 191.521 239.546 191.208 239.801 190.835C240.057 190.462 240.227 190.037 240.301 189.59C240.375 189.144 240.35 188.687 240.228 188.251C240.106 187.816 239.889 187.412 239.595 187.069L245.122 177.563L239.417 177.885L235.043 186.863C234.499 187.396 234.17 188.111 234.119 188.871C234.067 189.63 234.295 190.383 234.761 190.986C235.227 191.588 235.898 191.999 236.646 192.14C237.395 192.281 238.169 192.143 238.822 191.751L238.822 191.751Z" fill="#FFB7B7"/>
<path d="M241.052 184.762L235.944 180.783L245.225 162.796L241.748 139.891C241.576 138.759 241.655 137.602 241.981 136.504C242.306 135.406 242.869 134.393 243.629 133.537C244.39 132.681 245.33 132.003 246.382 131.551C247.434 131.099 248.573 130.885 249.717 130.922C251.785 130.993 253.739 131.88 255.153 133.39C256.566 134.9 257.323 136.909 257.257 138.977L256.398 165.058L241.052 184.762Z" fill="#3F3D56"/>
<path d="M242.438 121.225V112.77C242.436 109.766 243.627 106.884 245.75 104.758C247.873 102.632 250.754 101.437 253.758 101.435C256.762 101.433 259.644 102.624 261.77 104.747C263.896 106.871 265.091 109.751 265.093 112.756V112.77C267.09 116.931 265.841 118.909 265.093 121.225C265.093 121.628 264.932 122.014 264.647 122.299C264.362 122.585 263.975 122.745 263.572 122.746H243.959C243.556 122.745 243.169 122.585 242.884 122.3C242.599 122.015 242.438 121.628 242.438 121.225Z" fill="#2F2E41"/>
<path d="M250.051 122.196C254.734 122.196 258.53 118.4 258.53 113.717C258.53 109.033 254.734 105.237 250.051 105.237C245.368 105.237 241.571 109.033 241.571 113.717C241.571 118.4 245.368 122.196 250.051 122.196Z" fill="#FFB7B7"/>
<path d="M258.925 115.94C258.848 115.927 258.771 115.911 258.694 115.899C257.372 115.665 256.049 115.434 254.73 115.195L254.609 112.206L253.011 114.884C249.367 116.093 245.957 115.41 242.75 113.901C241.692 113.399 240.665 112.833 239.676 112.206C239.945 110.553 240.581 108.981 241.536 107.605C242.491 106.229 243.742 105.084 245.197 104.254C245.318 104.185 245.436 104.124 245.557 104.063C245.557 104.063 245.558 104.063 245.558 104.063C245.559 104.063 245.559 104.063 245.56 104.062C245.56 104.062 245.56 104.061 245.561 104.061C245.561 104.06 245.561 104.06 245.561 104.059C245.767 103.962 245.978 103.869 246.188 103.784C247.835 103.141 249.63 102.978 251.366 103.314C253.101 103.651 254.706 104.473 255.992 105.685C258.581 108.157 259.746 112.238 258.925 115.94Z" fill="#2F2E41"/>
</g>
<defs>
<clipPath id="clip0_1535_5109">
<rect width="245.498" height="229.625" fill="white" transform="translate(57.251 0.1875)"/>
</clipPath>
</defs>
</svg>
